<svg width="24" height="24" viewBox="0 0 24 24" fill="none" xmlns="http://www.w3.org/2000/svg">
<g clip-path="url(#clip0)">
<path d="M6 23C6.55228 23 7 22.5523 7 22C7 21.4477 6.55228 21 6 21C5.44772 21 5 21.4477 5 22C5 22.5523 5.44772 23 6 23Z" fill="#717791"/>
<path d="M20 23C20.5523 23 21 22.5523 21 22C21 21.4477 20.5523 21 20 21C19.4477 21 19 21.4477 19 22C19 22.5523 19.4477 23 20 23Z" fill="#717791"/>
<path d="M6 23C6.55228 23 7 22.5523 7 22C7 21.4477 6.55228 21 6 21C5.44772 21 5 21.4477 5 22C5 22.5523 5.44772 23 6 23Z" stroke="#717791" stroke-width="2" stroke-miterlimit="10" stroke-linecap="square"/>
<path d="M20 23C20.5523 23 21 22.5523 21 22C21 21.4477 20.5523 21 20 21C19.4477 21 19 21.4477 19 22C19 22.5523 19.4477 23 20 23Z" stroke="#717791" stroke-width="2" stroke-miterlimit="10" stroke-linecap="square"/>
<path d="M4.8 7H22L20 17H6L4 2H1" stroke="#717791" stroke-width="2" stroke-miterlimit="10" stroke-linecap="square"/>
<rect x="13" y="15" width="14" height="11" fill="white"/>
</g>
<path d="M16.0718 23.5497C17.9752 23.5533 19.1435 22.147 19.147 19.7464C19.1506 17.3601 17.9752 16 16.0718 16C14.1684 16 13.0036 17.3565 13 19.7464C12.9929 22.1399 14.1684 23.5497 16.0718 23.5497ZM16.0718 22.1115C15.3154 22.1115 14.8005 21.3516 14.8076 19.7464C14.8111 18.1733 15.3189 17.4276 16.0718 17.4276C16.8282 17.4276 17.336 18.1733 17.3395 19.7464C17.3431 21.3516 16.8317 22.1115 16.0718 22.1115Z" fill="#CC3366"/>
<path d="M23.5167 16.0994H21.8868L20.0934 17.2145V18.7344L21.7198 17.7401H21.7625V23.3722H23.5167V16.0994Z" fill="#CC3366"/>
<defs>
<clipPath id="clip0">
<rect width="24" height="24" fill="white"/>
</clipPath>
</defs>
</svg>
