<svg width="47" height="47" viewBox="0 0 47 47" fill="none" xmlns="http://www.w3.org/2000/svg">
<path d="M37.4999 40.471V38.982C37.4999 36.829 36.3459 34.841 34.4769 33.773L28.5059 30.348" stroke="#CC3366" stroke-width="3" stroke-miterlimit="10"/>
<path d="M18.495 30.347L12.524 33.772C10.654 34.841 9.5 36.829 9.5 38.982V40.471" stroke="#CC3366" stroke-width="3" stroke-miterlimit="10"/>
<path d="M23.5 32.5C19.082 32.5 15.5 27.918 15.5 23.5V19.5C15.5 15.082 19.082 11.5 23.5 11.5C27.918 11.5 31.5 15.082 31.5 19.5V23.5C31.5 27.918 27.918 32.5 23.5 32.5Z" stroke="#CC3366" stroke-width="3" stroke-miterlimit="10" stroke-linecap="square"/>
<path d="M23.5 45.5C35.6503 45.5 45.5 35.6503 45.5 23.5C45.5 11.3497 35.6503 1.5 23.5 1.5C11.3497 1.5 1.5 11.3497 1.5 23.5C1.5 35.6503 11.3497 45.5 23.5 45.5Z" stroke="#717791" stroke-width="3" stroke-miterlimit="10" stroke-linecap="square"/>
</svg>
