<svg width="18" height="19" viewBox="0 0 18 19" fill="none" xmlns="http://www.w3.org/2000/svg">
<path fill-rule="evenodd" clip-rule="evenodd" d="M17.64 9.19998C17.6404 8.58265 17.5855 7.96652 17.476 7.35898H9V10.84H13.844C13.7433 11.3909 13.5318 11.9157 13.2224 12.3825C12.913 12.8493 12.5121 13.2486 12.044 13.556V15.82H14.953C15.84 14.9666 16.5376 13.9362 17.0006 12.7958C17.4635 11.6553 17.6813 10.4301 17.64 9.19998Z" fill="#4285F4"/>
<path fill-rule="evenodd" clip-rule="evenodd" d="M9.00003 18C11.1907 18.0595 13.3214 17.2796 14.956 15.82L12.047 13.562C11.3512 14.0084 10.5625 14.2901 9.7413 14.3854C8.92005 14.4808 8.08788 14.3874 7.30823 14.1123C6.52857 13.8372 5.82203 13.3877 5.24248 12.7981C4.66293 12.2084 4.22566 11.4943 3.96403 10.71H0.957031V13.042C1.70635 14.5327 2.85531 15.7858 4.27559 16.6613C5.69588 17.5368 7.33158 18.0003 9.00003 18Z" fill="#34A853"/>
<path fill-rule="evenodd" clip-rule="evenodd" d="M3.96392 10.71C3.58758 9.60104 3.58758 8.39892 3.96392 7.28998V4.95798H0.956919C0.327357 6.21236 -0.000488281 7.59647 -0.000488281 8.99998C-0.000488281 10.4035 0.327357 11.7876 0.956919 13.042L3.96392 10.71Z" fill="#FBBC05"/>
<path fill-rule="evenodd" clip-rule="evenodd" d="M9.00003 3.57999C10.2791 3.55862 11.5151 4.04223 12.44 4.92599L15.021 2.34499C13.3924 0.81482 11.2346 -0.0255542 9.00003 -1.43001e-05C7.33158 -0.000332546 5.69588 0.463145 4.27559 1.33866C2.85531 2.21418 1.70635 3.46726 0.957031 4.95799L3.96403 7.28999C4.30994 6.22256 4.98188 5.29048 5.88528 4.62495C6.78868 3.95942 7.87804 3.59395 9.00003 3.57999Z" fill="#EA4335"/>
</svg>
