<svg width="48" height="38" viewBox="0 0 48 38" fill="none" xmlns="http://www.w3.org/2000/svg">
<path d="M27.5 36.5V32.5" stroke="#CC3366" stroke-width="3" stroke-miterlimit="10" stroke-linecap="round" stroke-linejoin="round"/>
<path d="M20.5 36.5H34.5" stroke="#CC3366" stroke-width="3" stroke-linecap="round"/>
<path d="M7.5 9.78302V2.47302H46.2849V27.587H21.2" stroke="#717791" stroke-width="3" stroke-linecap="round"/>
<path d="M8.5 32.5C10.1569 32.5 11.5 31.1569 11.5 29.5C11.5 27.8431 10.1569 26.5 8.5 26.5C6.84315 26.5 5.5 27.8431 5.5 29.5C5.5 31.1569 6.84315 32.5 8.5 32.5Z" stroke="#CC3366" stroke-width="3" stroke-miterlimit="10" stroke-linecap="round" stroke-linejoin="round"/>
<path d="M11.5 36.5H5.5C4.43913 36.5 3.42172 36.0786 2.67157 35.3284C1.92143 34.5783 1.5 33.5609 1.5 32.5V19.5C1.5 18.4391 1.92143 17.4217 2.67157 16.6716C3.42172 15.9214 4.43913 15.5 5.5 15.5H11.5C12.5609 15.5 13.5783 15.9214 14.3284 16.6716C15.0786 17.4217 15.5 18.4391 15.5 19.5V32.5C15.5 33.5609 15.0786 34.5783 14.3284 35.3284C13.5783 36.0786 12.5609 36.5 11.5 36.5Z" stroke="#717791" stroke-width="3" stroke-miterlimit="10" stroke-linecap="round" stroke-linejoin="round"/>
</svg>
