<?xml version="1.0" encoding="UTF-8"?>
<svg width="25px" height="31px" viewBox="0 0 25 31" version="1.1" xmlns="http://www.w3.org/2000/svg" xmlns:xlink="http://www.w3.org/1999/xlink">
    <!-- Generator: Sketch 54 (76480) - https://sketchapp.com -->
    <title>Shape</title>
    <desc>Created with Sketch.</desc>
    <g id="Page-1" stroke="none" stroke-width="1" fill="none" fill-rule="evenodd">
        <g id="logo" fill="#FFFFFF" fill-rule="nonzero">
            <path d="M18.1627,8.66437 L20.8513,2.77371 C20.8559,2.76907 20.8559,2.7598 20.8605,2.75516 C20.8698,2.73661 20.8744,2.72269 20.879,2.70414 C20.8837,2.69022 20.8883,2.68095 20.8929,2.66703 C20.8976,2.65312 20.9022,2.64384 20.9022,2.62992 C20.9068,2.61601 20.9114,2.59746 20.9114,2.58354 C20.9114,2.5789 20.9161,2.57427 20.9161,2.56499 C20.9161,2.56035 20.9161,2.55571 20.9161,2.55571 C20.9207,2.53716 20.9207,2.51397 20.9253,2.49541 C20.9253,2.48614 20.9253,2.47686 20.9253,2.47222 C20.9253,2.45367 20.9253,2.43512 20.9253,2.41656 C20.9253,2.40729 20.9253,2.39801 20.9253,2.38873 C20.9253,2.37018 20.9253,2.35626 20.9207,2.33771 C20.9207,2.3238 20.9161,2.31452 20.9161,2.3006 C20.9161,2.28669 20.9114,2.27277 20.9068,2.25886 C20.9022,2.24494 20.9022,2.23567 20.8976,2.22175 C20.8929,2.20784 20.8883,2.19392 20.8837,2.18001 C20.879,2.16609 20.8744,2.15682 20.8698,2.1429 C20.8652,2.12899 20.8605,2.11507 20.8513,2.10116 C20.8467,2.09188 20.842,2.07797 20.8374,2.06869 C20.8281,2.05477 20.8235,2.04086 20.8143,2.02231 C20.8096,2.01303 20.805,2.00375 20.8004,1.99448 C20.7911,1.98056 20.7819,1.96201 20.7726,1.94809 C20.768,1.94345 20.7634,1.93418 20.7587,1.92954 C20.7495,1.91562 20.7356,1.89707 20.7217,1.88316 C20.7171,1.87852 20.7125,1.86924 20.7078,1.8646 C20.6939,1.85069 20.6847,1.83677 20.6708,1.82286 C20.6662,1.81822 20.6569,1.80894 20.6523,1.8043 C20.6384,1.79039 20.6245,1.78111 20.6153,1.77184 C20.606,1.7672 20.5968,1.75792 20.5921,1.75328 C20.5783,1.74401 20.569,1.73473 20.5551,1.72545 C20.5459,1.71618 20.532,1.71154 20.5227,1.70226 C20.5135,1.69298 20.4996,1.68835 20.4857,1.68371 C20.4718,1.67443 20.4579,1.66979 20.4441,1.66516 C20.4394,1.66052 20.4348,1.66052 20.4302,1.65588 C20.4209,1.65124 20.4163,1.65124 20.407,1.6466 C20.3932,1.64196 20.3793,1.63733 20.3654,1.63269 C20.3515,1.62805 20.3376,1.62341 20.3237,1.61877 C20.3145,1.61413 20.3006,1.61413 20.2913,1.6095 C20.2728,1.60486 20.2543,1.60022 20.2404,1.59558 C20.2358,1.59558 20.2312,1.59094 20.2219,1.59094 L11.0362,0.013915 C11.0269,0.013915 11.0177,0.013915 11.013,0.00927667 C10.9992,0.00927667 10.9806,0.00463833 10.9668,0.00463833 C10.9529,0.00463833 10.9344,0.00463832 10.9205,0 C10.9112,0 10.9066,0 10.8973,0 C10.8927,0 10.8881,0 10.8881,0 C10.8696,0 10.8511,2e-08 10.8326,0.00463833 C10.8233,0.00463833 10.8141,0.00463835 10.8002,0.00927667 C10.7817,0.00927667 10.7631,0.013915 10.7493,0.0185533 C10.74,0.0185533 10.7261,0.0231916 10.7169,0.0231916 C10.703,0.0278299 10.6845,0.0324682 10.6706,0.0371065 C10.6613,0.0417448 10.6475,0.0417448 10.6382,0.0463832 C10.6243,0.0510215 10.6104,0.0556598 10.5966,0.0602981 C10.5827,0.0649364 10.5734,0.0695748 10.5595,0.0742131 C10.5457,0.0788514 10.5364,0.088128 10.5225,0.0927663 C10.5086,0.0974046 10.4994,0.106681 10.4855,0.11132 C10.4716,0.115958 10.4624,0.125235 10.4485,0.134511 C10.4392,0.139149 10.4253,0.148426 10.4161,0.157703 C10.4022,0.166979 10.3929,0.176256 10.3791,0.185533 C10.3698,0.194809 10.3605,0.199448 10.3513,0.208724 C10.3374,0.218001 10.3282,0.231916 10.3143,0.241192 C10.305,0.250469 10.3004,0.255107 10.2911,0.264384 C10.2773,0.278299 10.268,0.287576 10.2587,0.301491 C10.2541,0.310767 10.2449,0.315405 10.2402,0.324682 C10.231,0.338597 10.2217,0.352512 10.2125,0.366427 C10.2078,0.375704 10.1986,0.38498 10.194,0.394257 C10.1847,0.408172 10.1754,0.422087 10.1708,0.436002 C10.1662,0.445278 10.1569,0.454555 10.1523,0.46847 C10.1477,0.482385 10.1384,0.491661 10.1338,0.505576 C10.1292,0.519491 10.1199,0.528768 10.1153,0.542683 C10.1107,0.55196 10.106,0.565874 10.1014,0.575151 C10.0968,0.589066 10.0921,0.607619 10.0875,0.621534 C10.0829,0.630811 10.0829,0.644726 10.0783,0.654002 C10.0736,0.672556 10.069,0.686471 10.069,0.705024 C10.069,0.709662 10.069,0.714301 10.0644,0.714301 C10.0644,0.723577 10.0644,0.732854 10.0598,0.737492 C10.0598,0.751407 10.0551,0.76996 10.0551,0.783875 C10.0551,0.79779 10.0551,0.816344 10.0505,0.830258 L10.0505,0.85345 L10.0505,1.7672 L4.46037,1.58167 C4.45575,1.58167 4.44649,1.58167 4.44186,1.58167 C4.42335,1.58167 4.40484,1.58167 4.38633,1.58167 C4.37708,1.58167 4.37245,1.58167 4.3632,1.58167 C4.34006,1.58167 4.32155,1.5863 4.29841,1.59094 C4.29378,1.59094 4.28453,1.59094 4.2799,1.59558 C4.25676,1.60022 4.23825,1.60486 4.21511,1.6095 C4.21048,1.6095 4.20123,1.61413 4.1966,1.61413 C4.17809,1.61877 4.15495,1.62805 4.13644,1.63269 C4.13182,1.63269 4.12719,1.63733 4.11793,1.63733 C4.10405,1.64196 4.09017,1.6466 4.08091,1.65124 C4.07166,1.65588 4.06703,1.66052 4.05777,1.66516 C4.05315,1.66516 4.04852,1.66979 4.04852,1.66979 C4.02538,1.67907 4.00687,1.69299 3.98373,1.7069 C3.89118,1.7672 3.81251,1.84141 3.75235,1.9249 C3.74773,1.92954 3.74773,1.92954 3.74773,1.93418 C3.73384,1.95273 3.72459,1.97128 3.71071,1.98984 C3.70608,1.99911 3.70145,2.00839 3.69682,2.01767 C3.68757,2.03158 3.68294,2.0455 3.67368,2.05941 C3.66906,2.07333 3.66443,2.08724 3.65517,2.09652 C3.65055,2.11043 3.64592,2.11971 3.64129,2.13363 C3.63666,2.14754 3.63204,2.16146 3.62741,2.17537 C3.62278,2.18929 3.61815,2.19856 3.61815,2.21248 C3.61353,2.22639 3.61353,2.24031 3.6089,2.25422 C3.60427,2.26814 3.60427,2.28205 3.59964,2.29597 C3.59964,2.30524 3.59502,2.31916 3.59502,2.32843 C3.59502,2.34699 3.59039,2.3609 3.59039,2.37946 L3.59039,2.39337 L3.59039,2.41192 L3.59039,2.46295 C3.59039,2.47222 3.59039,2.48614 3.59502,2.49541 C3.59502,2.50933 3.59964,2.52788 3.59964,2.5418 C3.59964,2.55571 3.60427,2.56963 3.6089,2.5789 C3.61353,2.59282 3.61353,2.60673 3.61815,2.62065 C3.62278,2.63456 3.62741,2.65312 3.63204,2.66703 C3.63666,2.67631 3.63666,2.69022 3.64129,2.6995 C3.64592,2.71805 3.65517,2.73197 3.6598,2.74588 C3.66443,2.75052 3.66443,2.7598 3.66906,2.76444 L6.35769,8.6551 C5.571,9.8657 3.23406,13.5949 1.30899,18.2703 C0.202995,20.9513 -0.0330116,23.3725 0.610223,25.4643 C1.11463,27.1063 2.17897,28.4746 3.53486,29.2214 C5.72371,30.4227 10.5734,30.6871 12.2579,30.6871 C13.9423,30.6871 18.792,30.4227 20.9809,29.2214 C22.3367,28.4793 23.4011,27.111 23.9055,25.4643 C24.5441,23.3725 24.3127,20.9513 23.2067,18.2703 C21.2817,13.5949 18.9447,9.8657 18.1627,8.66437 L18.1627,8.66437 Z M22.2997,24.9681 C21.7675,26.7121 20.6384,27.4867 20.1757,27.7371 C18.593,28.6045 14.5948,28.9941 12.2579,28.9941 C9.92093,28.9941 5.92269,28.6045 4.34006,27.7371 C3.8773,27.4867 2.74817,26.7074 2.216,24.9681 C1.70233,23.2843 1.92446,21.1925 2.86386,18.9104 C4.52979,14.8658 6.5613,11.4752 7.49607,10.0048 C8.40308,10.6496 9.48593,10.9928 10.5966,10.9928 C10.8788,10.9928 11.1657,10.9696 11.448,10.9232 L11.4156,10.9743 C11.175,11.3731 11.3046,11.8926 11.7025,12.1338 C11.8367,12.2173 11.9895,12.2544 12.1329,12.2544 C12.4198,12.2544 12.6975,12.106 12.8548,11.8463 L13.9469,10.0188 C14.1876,9.61987 14.058,9.10038 13.66,8.85918 L11.8367,7.76454 C11.4388,7.52335 10.9205,7.65322 10.6799,8.05212 C10.4392,8.45101 10.5688,8.9705 10.9668,9.21169 L11.0639,9.27199 C9.94869,9.42042 8.81956,9.04471 8.00511,8.24693 L5.76073,3.31176 L10.0551,3.45091 L10.0551,5.50104 C10.0551,5.96487 10.43,6.34522 10.8973,6.34522 C11.3601,6.34522 11.7396,5.96951 11.7396,5.50104 L11.7396,1.84605 L18.8614,3.07056 L16.4319,8.39071 C16.4273,8.39535 16.4273,8.40463 16.4227,8.40927 C16.4181,8.42318 16.4088,8.4371 16.4042,8.45101 C16.3995,8.46493 16.3949,8.47884 16.3903,8.48812 C16.3857,8.50203 16.381,8.51131 16.381,8.52522 C16.3764,8.53914 16.3718,8.55769 16.3718,8.57161 C16.3718,8.58088 16.3672,8.5948 16.3672,8.60408 C16.3625,8.62263 16.3625,8.63654 16.3625,8.6551 C16.3625,8.66437 16.3625,8.67829 16.3579,8.68756 L16.3579,8.73395 L16.3579,8.77105 C16.3579,8.78497 16.3579,8.79888 16.3625,8.8128 C16.3625,8.82671 16.3672,8.84063 16.3672,8.85454 C16.3672,8.86846 16.3718,8.87774 16.3718,8.89165 C16.3764,8.90557 16.3764,8.91948 16.381,8.93803 C16.3857,8.94731 16.3857,8.96123 16.3903,8.9705 C16.3949,8.98442 16.3995,8.99833 16.4042,9.01689 C16.4088,9.02616 16.4134,9.04008 16.4181,9.04935 C16.4227,9.06327 16.4273,9.07718 16.4366,9.0911 C16.4412,9.10501 16.4458,9.11429 16.4551,9.12821 C16.4597,9.13748 16.469,9.1514 16.4736,9.16067 C16.4828,9.17459 16.4921,9.1885 16.4967,9.20242 C16.5014,9.20706 16.5014,9.21169 16.506,9.22097 C16.5337,9.26272 19.4167,13.4929 21.6519,18.9151 C22.5913,21.1925 22.8134,23.2843 22.2997,24.9681 L22.2997,24.9681 Z M15.4185,21.1322 C15.5434,21.4476 15.6036,21.7676 15.6036,22.1016 C15.6036,22.4355 15.5434,22.7556 15.4278,23.0571 C15.3074,23.3632 15.1408,23.6322 14.9187,23.8641 C14.692,24.1007 14.4282,24.2862 14.1228,24.4207 C13.8174,24.5552 13.4934,24.6248 13.151,24.6295 L12.3921,24.6295 L12.2208,25.6035 C12.1468,26.0117 11.7951,26.2992 11.3925,26.2992 C11.3416,26.2992 11.2953,26.2946 11.2444,26.2853 C10.7863,26.2065 10.4809,25.7658 10.5595,25.3066 L10.6799,24.6248 L9.76822,24.6248 C9.5137,24.6248 9.30546,24.5367 9.14812,24.3604 C8.98615,24.1842 8.90749,23.9523 8.90749,23.6647 C8.90749,23.3817 8.98615,23.1591 9.14349,22.9921 C9.30083,22.8252 9.50907,22.7417 9.76822,22.7417 L11.0084,22.7417 L11.1426,21.9671 C11.1657,21.8465 11.2676,21.7583 11.3925,21.7583 L12.591,21.7583 C12.7484,21.7583 12.8687,21.9021 12.8409,22.0552 L12.7206,22.7417 L12.9798,22.7417 C13.1649,22.7417 13.3315,22.686 13.4795,22.57 C13.6415,22.4448 13.7248,22.2732 13.7248,22.0552 C13.7248,21.8279 13.6415,21.6609 13.4795,21.5543 C13.3315,21.4661 13.1556,21.4197 12.9474,21.4197 L11.4943,21.4197 C11.1519,21.4197 10.8279,21.3502 10.5318,21.2157 C10.231,21.0811 9.97183,20.891 9.75433,20.6498 C9.53684,20.4086 9.36099,20.1303 9.24067,19.8242 C9.11573,19.518 9.05557,19.198 9.05557,18.864 C9.05557,18.544 9.12035,18.2332 9.2453,17.9364 C9.37024,17.6395 9.54609,17.3798 9.77284,17.1618 C9.9996,16.9345 10.2587,16.7629 10.5549,16.6376 C10.8511,16.5124 11.1657,16.4521 11.4989,16.4521 L12.1237,16.4521 L12.2949,15.4781 C12.3735,15.0189 12.8132,14.7127 13.2713,14.7916 C13.7294,14.8704 14.0349,15.3111 13.9562,15.7703 L13.8359,16.4521 L14.2755,16.4521 C14.5393,16.4521 14.7614,16.5356 14.9419,16.6979 C15.1223,16.8603 15.2103,17.0829 15.2103,17.3659 C15.2103,17.6442 15.1223,17.8761 14.9465,18.0616 C14.766,18.2425 14.5531,18.3306 14.3125,18.3306 L11.5221,18.3306 C11.3601,18.3306 11.2213,18.3909 11.1056,18.5069 C10.9899,18.6275 10.9344,18.7666 10.9344,18.929 C10.9344,19.1099 10.9945,19.2536 11.1102,19.365 C11.2305,19.4763 11.3647,19.5319 11.5267,19.5319 L11.5822,19.5319 L11.6979,18.8733 C11.7211,18.7527 11.8229,18.6646 11.9478,18.6646 L13.1464,18.6646 C13.3037,18.6646 13.424,18.8084 13.3962,18.9614 L13.2944,19.5366 C13.5813,19.5551 13.8544,19.6201 14.1135,19.736 C14.4189,19.8705 14.6873,20.0607 14.9141,20.3019 C15.1223,20.5431 15.2982,20.8214 15.4185,21.1322 L15.4185,21.1322 Z" id="Shape"></path>
        </g>
    </g>
</svg>