<svg width="47" height="46" viewBox="0 0 47 46" fill="none" xmlns="http://www.w3.org/2000/svg">
<path d="M27.8365 10.172L7.00146 2.49203L3.00146 6.41603L20.1555 17.852" stroke="#CC3366" stroke-width="3" stroke-miterlimit="10" stroke-linecap="round" stroke-linejoin="round"/>
<path d="M10.2513 30.047L3.08026 29.492C2.87737 29.4773 2.67481 29.5248 2.49962 29.6282C2.32442 29.7315 2.18492 29.8859 2.09973 30.0706C2.01454 30.2553 1.98771 30.4617 2.02282 30.662C2.05794 30.8624 2.15333 31.0473 2.29626 31.192L6.72025 35.616" stroke="#CC3366" stroke-width="3" stroke-miterlimit="10" stroke-linecap="round" stroke-linejoin="round"/>
<path d="M36.3211 18.657L44.0011 39.492L40.0771 43.492L28.6411 26.338" stroke="#CC3366" stroke-width="3" stroke-miterlimit="10" stroke-linecap="round" stroke-linejoin="round"/>
<path d="M16.4464 36.242L17.0014 43.413C17.0162 43.6159 16.9687 43.8185 16.8653 43.9937C16.7619 44.1689 16.6076 44.3084 16.4229 44.3936C16.2381 44.4788 16.0318 44.5056 15.8315 44.4705C15.6311 44.4354 15.4462 44.34 15.3014 44.197L10.8774 39.773" stroke="#CC3366" stroke-width="3" stroke-miterlimit="10" stroke-linecap="round" stroke-linejoin="round"/>
<path d="M22.6871 32.292L7.04312 42.192C6.66084 42.4199 6.21347 42.5138 5.77184 42.4588C5.3302 42.4038 4.91953 42.203 4.60483 41.8883C4.29014 41.5736 4.08939 41.1629 4.03438 40.7213C3.97937 40.2797 4.07324 39.8323 4.30112 39.45L14.2011 23.805L33.7581 4.24903C36.1011 1.90603 42.5711 0.577029 44.2431 2.24903C45.8991 3.90503 44.5861 10.391 42.2431 12.734L22.6871 32.292Z" stroke="#717791" stroke-width="3" stroke-miterlimit="10" stroke-linecap="round" stroke-linejoin="round"/>
</svg>
